# xmcd
#
# Track frame offsets:
#	150
#	26690
#	42561
#	65020
#	91031
#	119135
#	142690
#	170725
#	197352
#	218092
#	250605
#	272605
#	292784
#	318849
#
# Disc length: 4513 seconds
#
# Revision: 1
# Processed by: cddbd v1.5.2PL0 Copyright (c) Steve Scherf et al.
# Submitted via: audiograbber 1.83.01
#
DISCID=c3119f0e
DTITLE=Hed Kandi - A Taste of Kandi Winter 2010
DYEAR=2009
DGENRE=House
TTITLE0=Example - Watch The Sun Come Up (Fred Falke Remix)
TTITLE1=DJ Neo Feat. Soraya Vivian - Groove With You (Soulgangsters Groove Dub)
TTITLE2=Jonni Black Feat. Lauren Rose - I'm Over This
TTITLE3=Steven Quarre and Morris Mavado Feat. Stanford - The Reason
TTITLE4=Sosua and Mad - Supaconstellation
TTITLE5=No Halo - What Is This Feeling
TTITLE6=Tina More - Touch Me (eSQUIRE Remix)
TTITLE7=eSQUIRE Feat. Ruth Cullen - Has To Be Love (eQSUIRE Piano Mix)
TTITLE8=John Jones Feat. Myss Word - Be Together (Main Vocal Mix)
TTITLE9=The One Hundred - Break Me Down (Wez Clarke Remix)
TTITLE10=Frontier - Change The World
TTITLE11=Jay C and Marcella Woods - Rollin'
TTITLE12=Polina - Shotguns (Scumfrog Remix)
TTITLE13=Dancefloor Disko Kidz - Dancefloor Disko Kidz
EXTD=
EXTT0=
EXTT1=
EXTT2=
EXTT3=
EXTT4=
EXTT5=
EXTT6=
EXTT7=
EXTT8=
EXTT9=
EXTT10=
EXTT11=
EXTT12=
EXTT13=
PLAYORDER=
